<svg xmlns="http://www.w3.org/2000/svg" viewBox="0 0 24 24" fill="none">
  <path
    fill="#0B0F14"
    stroke="#00FF9C"
    stroke-width="1.5"
    stroke-linejoin="round"
    d="M12 21.2c-.32 0-.62-.15-.84-.4C9.7 18.5 4.75 12.4 4.75 8.25a7.25 7.25 0 1 1 14.5 0c0 4.15-4.95 10.25-6.41 12.55a1.05 1.05 0 0 1-.84.4Z"
  />
  <g
    transform="translate(12 11) scale(0.46) translate(-12 -12)"
    fill="none"
    stroke="#00FF9C"
    stroke-width="2"
    stroke-linecap="round"
  >
    <path d="M9 17H7a5 5 0 010-10h2" />
    <path d="M15 7h2a5 5 0 110 10h-2" />
    <path d="M8 12h8" />
  </g>
</svg>
